<svg id="Layer_1" data-name="Layer 1" xmlns="http://www.w3.org/2000/svg" viewBox="0 0 1000 500"><path d="M7.25,234.85l301.86-230a23.44,23.44,0,0,1,29.65.81l560,474.91c7.57,6.42,3.3,19.39-6.38,19.39H870a9.84,9.84,0,0,1-6.36-2.36L325.4,43.85a9.76,9.76,0,0,0-12.3-.34l-260.56,197C47,244.7,42.87,250,52,257.84L309.6,480.68c7.47,6.46,3.17,19.32-6.46,19.32H279.08a9.86,9.86,0,0,1-6.51-2.49L6.31,264.08C-2.48,256.37-2,241.91,7.25,234.85ZM947.55,500h0c17.17,0,24.65-23.08,11.12-34.33L722.39,269.4c-9.76-8.11-9.12-24,1.25-31.21L991.8,52.31a19.51,19.51,0,0,0,8.2-16.08V23.37c0-12.84-13.45-20.51-23.52-13.41L658.63,234.06c-10.29,7.26-10.85,23.09-1.11,31.15L936.46,496A17.36,17.36,0,0,0,947.55,500Z" fill="#1d71b8"/></svg>