<svg id="Layer_1" data-name="Layer 1" xmlns="http://www.w3.org/2000/svg" viewBox="0 0 1000 1000"><path d="M991.82,500.5c0,271.39-220,491.39-491.39,491.39S9,771.89,9,500.5,229,9.11,500.43,9.11,991.82,229.11,991.82,500.5ZM500.43,46.84C249.88,46.84,46.77,250,46.77,500.5S249.88,954.16,500.43,954.16,954.09,751.05,954.09,500.5,751,46.84,500.43,46.84ZM154.27,271.07v271a24.91,24.91,0,0,0,12,21.28L490.92,761a24.9,24.9,0,0,0,29.76-2.9L646.62,642.87A24.91,24.91,0,0,1,676,639.73l147.3,86a24.91,24.91,0,0,0,37.47-21.52V399.38a24.91,24.91,0,0,0-15.14-22.91L514.85,235.32a24.9,24.9,0,0,0-25.93,4L379.09,332.83a24.93,24.93,0,0,1-28,2.95L191,249.17A24.91,24.91,0,0,0,154.27,271.07Z" fill="none" stroke="#1d1d1b" stroke-miterlimit="10" stroke-width="7"/><text transform="translate(171.45 529.08) scale(0.71 1)" font-size="90.97" fill="#1d1d1b" font-family="BerlinSansFB-Reg, Berlin Sans FB">KEVIN NEWTON KISIBO</text><text/></svg>